Coordinates
version=1
nRows=10
nColumns=22
inDegrees=yes

Units are S.I. units (second, meters, Newtons, ...)
If the header above contains a line with 'inDegrees', this indicates whether rotational values are in degrees (yes) or radians (no).

endheader
time	pelvis_tilt	pelvis_list	pelvis_rotation	pelvis_tx	pelvis_ty	pelvis_tz	hip_flexion_r	hip_adduction_r	hip_rotation_r	knee_angle_r	ankle_angle_r	subtalar_angle_r	hip_flexion_l	hip_adduction_l	hip_rotation_l	knee_angle_l	ankle_angle_l	subtalar_angle_l	lumbar_extension	lumbar_bending	lumbar_rotation
      3.58000000	      4.97733352	     -5.51284677	    -30.17717404	      0.55877626	      0.87817780	      0.41485224	    -16.01683656	      3.87273052	     -4.24076997	    -19.43476635	     25.70624783	     -8.78259761	     22.71053428	     -5.60349366	     -8.03271629	    -15.90782862	      5.57637135	      1.95166711	     -8.44418509	      0.32914862	      6.29156614
      3.59000000	      4.90269647	     -5.40657040	    -30.56059947	      0.56766168	      0.87721321	      0.41824916	    -16.26191843	      3.57059624	     -3.93896760	    -19.95248501	     25.63426783	     -8.65146468	     22.65710778	     -5.55217839	     -8.27577304	    -16.15180218	      5.33599972	      1.90430198	     -8.17128706	      0.23589182	      6.42999142
      3.60000000	      4.80606874	     -5.29029026	    -30.91896187	      0.57672108	      0.87626987	      0.42162215	    -16.46630147	      3.27159879	     -3.67491318	    -20.50325017	     25.46174684	     -8.51739980	     22.62235648	     -5.49576022	     -8.47357981	    -16.57501935	      4.99795722	      1.79934507	     -7.85736930	      0.14678110	      6.55610132
      3.61000000	      4.70316924	     -5.15021094	    -31.24828166	      0.58593737	      0.87536862	      0.42493558	    -16.63061174	      2.95447633	     -3.44333896	    -21.09587549	     25.22439789	     -8.36221913	     22.61719412	     -5.40853748	     -8.62450838	    -17.16309431	      4.53294148	      1.65381145	     -7.51431521	      0.04151813	      6.66535776
      3.62000000	      4.59966647	     -4.97867857	    -31.53447302	      0.59527766	      0.87452170	      0.42812430	    -16.73162243	      2.60970831	     -3.25947719	    -21.76700696	     24.92383298	     -8.13270204	     22.65693699	     -5.26535197	     -8.68322687	    -17.88682469	      3.95377273	      1.47114476	     -7.15217209	     -0.08498407	      6.73716852
      3.63000000	      4.51525079	     -4.76521388	    -31.74809572	      0.60478463	      0.87379262	      0.43114956	    -16.81384335	      2.22496718	     -3.15349615	    -22.45267222	     24.50817188	     -7.87864177	     22.74327281	     -5.02714281	     -8.60682502	    -18.72613543	      3.25106738	      1.30310990	     -6.77882102	     -0.25314267	      6.78594155
      3.64000000	      4.47473135	     -4.50856790	    -31.89300303	      0.61441398	      0.87324024	      0.43397633	    -16.87586645	      1.78941124	     -3.07033661	    -23.18952348	     23.98133508	     -7.66871885	     22.84901956	     -4.67111077	     -8.37923431	    -19.63845348	      2.46934763	      1.16441061	     -6.42610070	     -0.47112819	      6.78373265
      3.65000000	      4.45724510	     -4.20554632	    -31.95559728	      0.62415762	      0.87283230	      0.43657706	    -16.87409789	      1.30835264	     -3.05857010	    -24.01137768	     23.29852395	     -7.34231101	     23.02364689	     -4.20296441	     -7.99533018	    -20.65864018	      1.75769866	      0.99843371	     -6.07164760	     -0.73093128	      6.77003656
      3.66000000	      4.51184345	     -3.86810775	    -31.95512130	      0.63395120	      0.87267093	      0.43899399	    -16.85116648	      0.77432154	     -3.02371012	    -24.93052990	     22.49301656	     -7.12489408	     23.17380570	     -3.61353397	     -7.50038242	    -21.71022934	      1.10576106	      0.81682178	     -5.78101789	     -1.05451756	      6.72627099
      3.67000000	      4.61095235	     -3.49586351	    -31.89350023	      0.64379954	      0.87271931	      0.44123974	    -16.76244985	      0.20102872	     -2.96878150	    -25.97693038	     21.50115256	     -6.93382742	     23.31389821	     -2.92871848	     -6.96459134	    -22.78012820	      0.61043768	      0.59250114	     -5.52278555	     -1.42356330	      6.64864904
